PathFileType	4	(X/Y/Z)	 0.16m3min.trc
DataRate	CameraRate	NumFrames	NumMarkers	Units	OrigDataRate	OrigDataStartFrame	OrigNumFrames
200	200	8	35	m	200	251	1000
Frame#	Time	C7			LSH			RSH			MAN			RASI			LASI			HIPR			HIPL			RPSI			LPSI			COX			RTHI1			RTHI2			RTHI3			RTHI4			RSHA1			RSHA2			RSHA3			RSHA4			RHEEL			RMET5			RMET1			RTOE			LTHI1			LTHI2			LTHI3			LTHI4			LSHA1			LSHA2			LSHA3			LSHA4			LHEEL			LMET5			LMET1			LTOE			
		X1	Y1	Z1	X2	Y2	Z2	X3	Y3	Z3	X4	Y4	Z4	X5	Y5	Z5	X6	Y6	Z6	X7	Y7	Z7	X8	Y8	Z8	X9	Y9	Z9	X10	Y10	Z10	X11	Y11	Z11	X12	Y12	Z12	X13	Y13	Z13	X14	Y14	Z14	X15	Y15	Z15	X16	Y16	Z16	X17	Y17	Z17	X18	Y18	Z18	X19	Y19	Z19	X20	Y20	Z20	X21	Y21	Z21	X22	Y22	Z22	X23	Y23	Z23	X24	Y24	Z24	X25	Y25	Z25	X26	Y26	Z26	X27	Y27	Z27	X28	Y28	Z28	X29	Y29	Z29	X30	Y30	Z30	X31	Y31	Z31	X32	Y32	Z32	X33	Y33	Z33	X34	Y34	Z34	X35	Y35	Z35	
251	1.2550	-0.327614	1.519095	-0.499700	-0.250744	1.504505	-0.735849	-0.234907	1.505880	-0.290227	-0.165781	1.464618	-0.512542	-0.228440	0.991387	-0.388543	-0.236795	0.991180	-0.617523	-0.289683	1.067260	-0.338117	-0.292317	1.054256	-0.661528	-0.409391	1.042853	-0.443265	-0.410006	1.045600	-0.548131	-0.417466	1.050743	-0.493687	-0.266760	0.766639	-0.294598	-0.237169	0.717225	-0.281249	-0.179905	0.748411	-0.280291	-0.203639	0.803651	-0.294651	-0.262613	0.376805	-0.264123	-0.288642	0.342424	-0.268611	-0.236645	0.312030	-0.276173	-0.215730	0.346397	-0.275576	-0.469616	0.082758	-0.342651	-0.294367	0.027230	-0.259148	-0.249137	0.040494	-0.348058	-0.218508	0.028891	-0.342859	-0.251054	0.749262	-0.711004	-0.219888	0.696713	-0.719168	-0.161276	0.723652	-0.714945	-0.184105	0.779566	-0.706286	-0.304393	0.328757	-0.705003	-0.328494	0.296924	-0.699401	-0.274702	0.264323	-0.699838	-0.256510	0.304179	-0.706521	-0.487793	0.072523	-0.614437	-0.327537	0.023635	-0.723439	-0.263539	0.037479	-0.640665	-0.231714	0.026927	-0.651693	
252	1.2600	-0.327510	1.520927	-0.499714	-0.250354	1.506160	-0.735855	-0.234813	1.507402	-0.290134	-0.165698	1.466152	-0.512473	-0.227702	0.993292	-0.388512	-0.236103	0.992826	-0.617549	-0.289705	1.068788	-0.338112	-0.292045	1.055687	-0.661687	-0.408771	1.044329	-0.443446	-0.409370	1.047070	-0.548269	-0.416808	1.052220	-0.493819	-0.266677	0.768218	-0.294617	-0.237273	0.718697	-0.281196	-0.179939	0.749772	-0.280181	-0.203423	0.805014	-0.294569	-0.263314	0.377618	-0.263876	-0.289264	0.343094	-0.268522	-0.237157	0.312861	-0.275829	-0.216308	0.347277	-0.275260	-0.469476	0.083141	-0.342325	-0.294277	0.027175	-0.259017	-0.249170	0.040442	-0.347998	-0.218516	0.028902	-0.342880	-0.250877	0.750456	-0.710738	-0.219921	0.697776	-0.718812	-0.161241	0.724428	-0.714508	-0.183811	0.780486	-0.705970	-0.305007	0.329011	-0.704836	-0.329014	0.297091	-0.699326	-0.275117	0.264673	-0.699623	-0.257037	0.304594	-0.706212	-0.487908	0.072513	-0.614806	-0.327473	0.023621	-0.723521	-0.263599	0.037471	-0.640652	-0.231785	0.026898	-0.651631	
253	1.2650	-0.327462	1.523313	-0.499744	-0.250064	1.508430	-0.735873	-0.234818	1.509558	-0.290050	-0.165613	1.468381	-0.512415	-0.226799	0.995715	-0.388487	-0.235263	0.994975	-0.617598	-0.289409	1.070927	-0.338118	-0.291626	1.057696	-0.661844	-0.407966	1.046381	-0.443590	-0.408561	1.049111	-0.548392	-0.415987	1.054255	-0.493932	-0.266747	0.770260	-0.294596	-0.237618	0.720562	-0.281167	-0.180158	0.751457	-0.279944	-0.203298	0.806749	-0.294394	-0.264537	0.378427	-0.263529	-0.290314	0.343677	-0.268417	-0.238028	0.313752	-0.275448	-0.217324	0.348263	-0.274860	-0.469368	0.083478	-0.342022	-0.294199	0.027125	-0.258901	-0.249219	0.040354	-0.347936	-0.218545	0.028893	-0.342888	-0.250860	0.752148	-0.710535	-0.220187	0.699301	-0.718541	-0.161398	0.725627	-0.714295	-0.183642	0.781824	-0.705790	-0.306000	0.329467	-0.704605	-0.329874	0.297436	-0.699156	-0.275842	0.265257	-0.699420	-0.257916	0.305262	-0.705931	-0.487969	0.072537	-0.614958	-0.327441	0.023620	-0.723543	-0.263631	0.037465	-0.640637	-0.231831	0.026893	-0.651605	
254	1.2700	-0.327473	1.526222	-0.499792	-0.249917	1.511300	-0.735904	-0.234927	1.512335	-0.289981	-0.165523	1.471287	-0.512373	-0.225740	0.998625	-0.388474	-0.234283	0.997605	-0.617649	-0.288779	1.073679	-0.338134	-0.291039	1.060300	-0.661994	-0.406987	1.049001	-0.443695	-0.407588	1.051713	-0.548491	-0.415002	1.056826	-0.494017	-0.266960	0.772769	-0.294530	-0.238196	0.722889	-0.281109	-0.180545	0.753434	-0.279588	-0.203258	0.808865	-0.294139	-0.266211	0.379268	-0.263087	-0.291735	0.344287	-0.268242	-0.239196	0.314743	-0.275030	-0.218725	0.349378	-0.274367	-0.469272	0.083817	-0.341755	-0.294139	0.027084	-0.258813	-0.249259	0.040272	-0.347896	-0.218603	0.028874	-0.342895	-0.250988	0.754353	-0.710388	-0.220658	0.701305	-0.718356	-0.161737	0.727261	-0.714211	-0.183587	0.783605	-0.705723	-0.307339	0.330176	-0.704326	-0.331045	0.298000	-0.698896	-0.276856	0.266110	-0.699235	-0.259136	0.306210	-0.705682	-0.487967	0.072643	-0.614914	-0.327440	0.023630	-0.723501	-0.263632	0.037461	-0.640623	-0.231859	0.026898	-0.651597	
255	1.2750	-0.327546	1.529638	-0.499855	-0.249921	1.514774	-0.735947	-0.235135	1.515710	-0.289933	-0.165436	1.474848	-0.512350	-0.224540	1.001989	-0.388476	-0.233168	1.000713	-0.617698	-0.287807	1.077025	-0.338164	-0.290266	1.063502	-0.662128	-0.405846	1.052168	-0.443756	-0.406466	1.054860	-0.548565	-0.413876	1.059925	-0.494072	-0.267302	0.775749	-0.294424	-0.238972	0.725651	-0.280998	-0.181074	0.755733	-0.279125	-0.203300	0.811378	-0.293820	-0.268298	0.380231	-0.262528	-0.293454	0.344993	-0.267936	-0.240644	0.315877	-0.274592	-0.220461	0.350663	-0.273823	-0.469175	0.084200	-0.341532	-0.294104	0.027055	-0.258754	-0.249300	0.040174	-0.347867	-0.218692	0.028823	-0.342888	-0.251239	0.757075	-0.710289	-0.221298	0.703811	-0.718261	-0.162210	0.729325	-0.714239	-0.183629	0.785841	-0.705747	-0.308988	0.331160	-0.704015	-0.332493	0.298828	-0.698574	-0.278128	0.267256	-0.699076	-0.260651	0.307468	-0.705485	-0.487896	0.072880	-0.614718	-0.327462	0.023655	-0.723403	-0.263605	0.037457	-0.640612	-0.231862	0.026903	-0.651596	
256	1.2800	-0.327677	1.533546	-0.499930	-0.250057	1.518830	-0.736000	-0.235433	1.519658	-0.289911	-0.165359	1.479031	-0.512349	-0.223220	1.005784	-0.388485	-0.231927	1.004289	-0.617746	-0.286503	1.080939	-0.338217	-0.289304	1.067291	-0.662238	-0.404558	1.055862	-0.443769	-0.405210	1.058530	-0.548613	-0.412622	1.063531	-0.494093	-0.267751	0.779219	-0.294276	-0.239911	0.728875	-0.280813	-0.181728	0.758415	-0.278597	-0.203408	0.814298	-0.293467	-0.270725	0.381388	-0.261925	-0.295475	0.345928	-0.267467	-0.242347	0.317242	-0.274112	-0.222500	0.352193	-0.273222	-0.469093	0.084693	-0.341316	-0.294090	0.027032	-0.258716	-0.249344	0.040062	-0.347848	-0.218799	0.028746	-0.342874	-0.251584	0.760313	-0.710235	-0.222076	0.706817	-0.718247	-0.162819	0.731855	-0.714354	-0.183742	0.788540	-0.705832	-0.310901	0.332449	-0.703705	-0.334178	0.299946	-0.698222	-0.279622	0.268724	-0.698965	-0.262418	0.309060	-0.705354	-0.487755	0.073296	-0.614432	-0.327497	0.023690	-0.723260	-0.263556	0.037445	-0.640599	-0.231857	0.026900	-0.651596	
257	1.2850	-0.327859	1.537927	-0.500016	-0.250307	1.523443	-0.736062	-0.235809	1.524155	-0.289917	-0.165305	1.483792	-0.512371	-0.221797	1.010001	-0.388491	-0.230566	1.008339	-0.617796	-0.284886	1.085384	-0.338299	-0.288149	1.071641	-0.662315	-0.403144	1.060058	-0.443732	-0.403832	1.062703	-0.548632	-0.411257	1.067628	-0.494086	-0.268286	0.783171	-0.294094	-0.240984	0.732563	-0.280576	-0.182488	0.761488	-0.278020	-0.203572	0.817643	-0.293092	-0.273356	0.382742	-0.261448	-0.297718	0.347088	-0.266970	-0.244260	0.318905	-0.273583	-0.224808	0.354038	-0.272613	-0.468976	0.085327	-0.341119	-0.294090	0.027015	-0.258698	-0.249384	0.039996	-0.347834	-0.218912	0.028682	-0.342865	-0.251999	0.764062	-0.710221	-0.222960	0.710325	-0.718299	-0.163472	0.734882	-0.714586	-0.183912	0.791711	-0.705967	-0.313024	0.334056	-0.703436	-0.336052	0.301380	-0.697893	-0.281285	0.270536	-0.698927	-0.264384	0.310994	-0.705316	-0.487545	0.073939	-0.614148	-0.327531	0.023730	-0.723085	-0.263493	0.037431	-0.640592	-0.231823	0.026916	-0.651625	
258	1.2900	-0.328090	1.542763	-0.500108	-0.250653	1.528580	-0.736127	-0.236244	1.529168	-0.289955	-0.165293	1.489083	-0.512420	-0.220278	1.014624	-0.388481	-0.229099	1.012845	-0.617818	-0.283013	1.090341	-0.338404	-0.286810	1.076527	-0.662352	-0.401612	1.064730	-0.443654	-0.402347	1.067348	-0.548628	-0.409783	1.072183	-0.494048	-0.268874	0.787605	-0.293881	-0.242140	0.736747	-0.280236	-0.183334	0.765006	-0.277449	-0.203778	0.821422	-0.292720	-0.276168	0.384401	-0.261034	-0.300178	0.348580	-0.266435	-0.246358	0.320917	-0.272999	-0.227305	0.356239	-0.271945	-0.468793	0.086149	-0.340928	-0.294087	0.027011	-0.258700	-0.249417	0.039984	-0.347823	-0.219027	0.028635	-0.342863	-0.252460	0.768314	-0.710243	-0.223919	0.714331	-0.718413	-0.164245	0.738329	-0.714758	-0.184116	0.795346	-0.706134	-0.315303	0.335997	-0.703245	-0.338059	0.303141	-0.697640	-0.283072	0.272712	-0.698988	-0.266505	0.313279	-0.705377	-0.487269	0.074863	-0.613950	-0.327551	0.023771	-0.722900	-0.263424	0.037415	-0.640596	-0.231779	0.026933	-0.651655	
